#!OML:ASF F:\VICON\USERDATA\INSTALL\rory3\rory3.ASF
:FULLY-SPECIFIED
:DEGREES
263
root 0.763536 17.9548 18.4093 -3.87184 -2.90311 0.819759
lowerback 11.2405 0.352102 -0.0376408
upperback 0.226405 0.534029 1.13975
thorax -6.08563 0.27967 1.1305
lowerneck -15.6048 -2.54314 -1.97101
upperneck 23.6187 -3.17464 0.417298
head 10.1463 -1.59526 0.0573204
rclavicle -8.38623e-015 -2.0276e-014
rhumerus -28.2491 -22.6579 -77.2294
rradius 25.5401
rwrist 4.72807
rhand -19.4955 22.7122
rfingers 7.12502
rthumb 6.82683 -7.15774
lclavicle -8.38623e-015 -2.0276e-014
lhumerus -31.0496 2.44107 82.3687
lradius 22.6817
lwrist 1.9279
lhand -25.3881 29.2463
lfingers 7.12502
lthumb 1.13672 59.223
rfemur -25.7716 0.273968 20.792
rtibia 75.3331
rfoot -0.998004 -6.20944
rtoes 13.492
lfemur -5.59523 -3.17259 -25.9803
ltibia 27.4569
lfoot -12.9542 3.05578
ltoes -2.16784
264
root 0.770574 17.9355 18.5543 -3.70707 -2.52497 1.50074
lowerback 11.3771 0.216566 -0.661538
upperback 0.115412 0.262713 0.969021
thorax -6.27617 0.163875 1.34814
lowerneck -15.6464 -2.51995 -2.03543
upperneck 23.6382 -3.16682 0.579406
head 10.1653 -1.57819 0.125476
rclavicle -4.79568e-015 1.47101e-014
rhumerus -28.5623 -22.867 -77.0731
rradius 25.6122
rwrist 4.78447
rhand -19.7323 22.2601
rfingers 7.12502
rthumb 6.59829 -7.61712
lclavicle -4.79568e-015 1.47101e-014
lhumerus -30.5382 1.66182 82.4881
lradius 22.9286
lwrist 2.28095
lhand -26.1067 28.7869
lfingers 7.12502
lthumb 0.44271 58.7662
rfemur -27.0917 -0.148383 19.968
rtibia 74.5028
rfoot -2.40889 -6.37255
rtoes 14.0162
lfemur -5.4528 -3.1799 -26.8768
ltibia 27.5963
lfoot -13.0651 3.35225
ltoes -4.57796
265
root 0.747142 17.9323 18.7225 -3.76526 -2.65963 0.891338
lowerback 11.2866 0.213243 -0.426015
upperback 0.29356 0.306201 1.26112
thorax -6.03872 0.18048 1.51438
lowerneck -15.8207 -2.50095 -2.0225
upperneck 23.5903 -3.1369 0.571781
head 10.1805 -1.56327 0.122635
rclavicle -2.2239e-015 7.15625e-015
rhumerus -28.6227 -23.0524 -76.9606
rradius 25.5755
rwrist 4.80389
rhand -20.1513 21.6568
rfingers 7.12502
rthumb 6.19375 -8.23266
lclavicle -2.2239e-015 7.15625e-015
lhumerus -29.7562 0.878176 82.6656
lradius 23.1649
lwrist 2.39642
lhand -26.1575 28.7558
lfingers 7.12502
lthumb 0.393636 58.7352
rfemur -27.847 0.16839 20.8971
rtibia 73.2751
rfoot -3.75813 -6.92456
rtoes 13.8288
lfemur -4.60698 -3.24241 -26.1175
ltibia 27.6166
lfoot -13.9454 3.2241
ltoes -0.868993
266
root 0.747191 17.9259 18.894 -3.70368 -2.42446 1.05609
lowerback 11.1009 0.125805 -0.557565
upperback 0.407823 0.169983 1.23016
thorax -5.81003 0.115015 1.57721
lowerneck -15.9729 -2.50773 -1.93676
upperneck 23.5945 -3.14141 0.47593
head 10.2078 -1.56821 0.0718668
rclavicle 4.96962e-016 -1.74931e-014
rhumerus -28.9438 -23.1654 -76.821
rradius 25.7358
rwrist 4.676
rhand -20.3011 21.8318
rfingers 7.12502
rthumb 6.0491 -8.06187
lclavicle 4.96962e-016 -1.74931e-014
lhumerus -29.072 0.0631933 82.777
lradius 23.4938
lwrist 2.82723
lhand -25.8776 27.514
lfingers 7.12502
lthumb 0.663994 57.4927
rfemur -28.687 -0.0953217 20.7378
rtibia 71.9336
rfoot -4.91682 -7.03914
rtoes 12.0759
lfemur -3.89822 -3.22735 -26.3518
ltibia 27.4496
lfoot -14.5624 3.10929
ltoes 0.170597
267
root 0.754737 17.9211 19.0633 -3.67061 -2.07355 1.50847
lowerback 11.1974 -0.00982419 -0.877604
upperback 0.334788 -0.0589773 1.09519
thorax -5.9337 0.010802 1.65382
lowerneck -15.8247 -2.50674 -1.90263
upperneck 23.5712 -3.15165 0.471361
head 10.1704 -1.57136 0.0652897
rclavicle -8.44835e-016 7.15625e-015
rhumerus -29.5003 -22.9994 -76.717
rradius 25.9739
rwrist 4.34252
rhand -20.307 22.0337
rfingers 7.12502
rthumb 6.04345 -7.86014
lclavicle -8.44835e-016 7.15625e-015
lhumerus -28.7841 -0.787699 82.9023
lradius 23.8274
lwrist 3.95344
lhand -26.7317 24.2013
lfingers 7.12502
lthumb -0.160938 54.181
rfemur -29.5136 -0.510341 20.1943
rtibia 70.3367
rfoot -5.71716 -7.15056
rtoes 10.1081
lfemur -3.25749 -3.27292 -26.9553
ltibia 27.3539
lfoot -15.0114 3.06152
ltoes 0.809971
268
root 0.749929 17.9079 19.2214 -3.62473 -1.97133 1.88477
lowerback 11.4057 -0.0557304 -1.33496
upperback 0.265386 -0.183966 1.04036
thorax -6.11865 -0.0360962 1.87704
lowerneck -15.7679 -2.53029 -1.93106
upperneck 23.4234 -3.19773 0.551523
head 10.109 -1.58633 0.0937812
rclavicle 2.31087e-015 7.95139e-016
rhumerus -29.9234 -22.9021 -76.6235
rradius 26.2105
rwrist 4.12945
rhand -20.202 22.294
rfingers 7.12502
rthumb 6.14479 -7.59693
lclavicle 2.31087e-015 7.95139e-016
lhumerus -28.2225 -1.62549 82.9939
lradius 23.8673
lwrist 4.47425
lhand -26.6975 23.5497
lfingers 7.12502
lthumb -0.127946 53.5294
rfemur -30.3975 -0.633521 19.8425
rtibia 68.62
rfoot -6.28736 -7.3864
rtoes 8.3987
lfemur -2.62237 -3.14055 -27.4048
ltibia 27.1227
lfoot -15.3342 3.08613
ltoes 0.503768
269
root 0.738986 17.889 19.3795 -3.55762 -1.87537 1.97076
lowerback 11.4923 -0.107186 -1.59717
upperback 0.298256 -0.283601 1.10759
thorax -6.12699 -0.0764873 2.11312
lowerneck -15.8856 -2.51661 -1.98505
upperneck 23.2231 -3.17534 0.617
head 10.0613 -1.57277 0.128491
rclavicle -8.89561e-015 -1.98785e-015
rhumerus -30.1097 -22.8964 -76.4859
rradius 26.2784
rwrist 4.09591
rhand -19.8478 22.8752
rfingers 7.12502
rthumb 6.48677 -7.00541
lclavicle -8.89561e-015 -1.98785e-015
lhumerus -27.4176 -2.39085 83.031
lradius 23.8826
lwrist 4.22485
lhand -26.3813 25.0781
lfingers 7.12502
lthumb 0.177496 55.0578
rfemur -31.0926 -0.629761 19.8613
rtibia 66.6665
rfoot -6.86201 -7.69445
rtoes 5.78047
lfemur -2.10402 -2.84794 -27.4601
ltibia 27.1047
lfoot -15.7672 3.01867
ltoes 0.281582
270
root 0.721679 17.8785 19.5365 -3.43451 -1.68054 1.51998
lowerback 11.4087 -0.242281 -1.42901
upperback 0.371436 -0.424645 1.35797
thorax -5.9952 -0.149129 2.30312
lowerneck -15.7864 -2.47647 -1.92622
upperneck 22.9416 -3.10497 0.507365
head 9.93767 -1.54889 0.0927011
rclavicle -1.43373e-014 -1.98785e-014
rhumerus -30.2721 -22.4161 -76.5648
rradius 26.5883
rwrist 3.66309
rhand -19.9569 22.6898
rfingers 7.12502
rthumb 6.38146 -7.19402
lclavicle -1.43373e-014 -1.98785e-014
lhumerus -26.7129 -2.74148 82.9648
lradius 24.1825
lwrist 3.93401
lhand -26.248 26.0598
lfingers 7.12502
lthumb 0.306239 56.0393
rfemur -31.6435 -0.546199 20.4853
rtibia 64.4447
rfoot -7.34882 -8.2115
rtoes 1.50475
lfemur -1.53148 -2.7841 -26.8956
ltibia 26.8768
lfoot -16.0995 2.89162
ltoes 0.612002
271
root 0.704208 17.8683 19.6768 -3.08812 -1.6974 0.788096
lowerback 11.5734 -0.329309 -0.97757
upperback 0.208441 -0.461092 1.66676
thorax -6.2595 -0.171194 2.38348
lowerneck -15.6147 -2.44962 -1.95719
upperneck 22.7781 -3.06617 0.527798
head 9.84731 -1.53243 0.113358
rclavicle -1.39149e-015 -7.95139e-015
rhumerus -30.6632 -22.2374 -76.4942
rradius 26.8213
rwrist 3.51686
rhand -19.9748 22.6405
rfingers 7.12502
rthumb 6.36418 -7.24391
lclavicle -1.39149e-015 -7.95139e-015
lhumerus -26.234 -3.11325 82.8951
lradius 24.5452
lwrist 4.02252
lhand -25.1588 28.0663
lfingers 7.12502
lthumb 1.35819 58.0418
rfemur -32.4406 -0.12968 21.4079
rtibia 61.9466
rfoot -6.92884 -8.87553
rtoes 1.26556
lfemur -1.26338 -2.73284 -26.0061
ltibia 26.5711
lfoot -16.4168 2.82758
ltoes 1.16464
